<svg xmlns="http://www.w3.org/2000/svg" xmlns:xlink="http://www.w3.org/1999/xlink" contentStyleType="text/css" data-diagram-type="CLASS" height="771px" preserveAspectRatio="none" style="width:547px;height:771px;background:#1B1B1B;" version="1.1" viewBox="0 0 547 771" width="547px" zoomAndPan="magnify"><defs/><g><rect fill="#1B1B1B" height="771" style="stroke:none;stroke-width:1;" width="547" x="0" y="0"/><!--class UserType--><g class="entity" data-entity="UserType" data-source-line="1" data-uid="ent0002" id="entity_UserType"><rect fill="#313139" height="80.5938" rx="2.5" ry="2.5" style="stroke:#E7E7E7;stroke-width:0.5;" width="98.2471" x="26.25" y="23.3"/><ellipse cx="41.25" cy="39.3" fill="#852D19" rx="11" ry="11" style="stroke:#E7E7E7;stroke-width:1;"/><path d="M45.3594,45.3 L37.6406,45.3 L37.6406,32.9094 L45.3594,32.9094 L45.3594,35.0656 L40.0938,35.0656 L40.0938,37.7375 L44.8594,37.7375 L44.8594,39.8937 L40.0938,39.8937 L40.0938,43.1437 L45.3594,43.1437 L45.3594,45.3 Z " fill="#FFFFFF"/><text fill="#FFFFFF" font-family="sans-serif" font-size="14" lengthAdjust="spacing" textLength="66.2471" x="55.25" y="44.1467">UserType</text><line style="stroke:#E7E7E7;stroke-width:0.5;" x1="27.25" x2="123.4971" y1="55.3" y2="55.3"/><text fill="#FFFFFF" font-family="sans-serif" font-size="14" lengthAdjust="spacing" textLength="47.0381" x="32.25" y="72.2951">ADMIN</text><text fill="#FFFFFF" font-family="sans-serif" font-size="14" lengthAdjust="spacing" textLength="74.4297" x="32.25" y="88.592">EMPLOYEE</text><line style="stroke:#E7E7E7;stroke-width:0.5;" x1="27.25" x2="123.4971" y1="95.8937" y2="95.8937"/></g><!--class User--><g class="entity" data-entity="User" data-source-line="6" data-uid="ent0003" id="entity_User"><rect fill="#313139" height="113.1875" rx="2.5" ry="2.5" style="stroke:#E7E7E7;stroke-width:0.5;" width="166.2871" x="159.23" y="7"/><ellipse cx="222.1685" cy="23" fill="#2E5233" rx="11" ry="11" style="stroke:#E7E7E7;stroke-width:1;"/><path d="M225.1372,28.6406 Q224.5591,28.9375 223.9185,29.0781 Q223.2779,29.2344 222.5747,29.2344 Q220.0747,29.2344 218.7466,27.5938 Q217.4341,25.9375 217.4341,22.8125 Q217.4341,19.6875 218.7466,18.0313 Q220.0747,16.375 222.5747,16.375 Q223.2779,16.375 223.9185,16.5313 Q224.5747,16.6875 225.1372,16.9844 L225.1372,19.7031 Q224.5122,19.125 223.9185,18.8594 Q223.3247,18.5781 222.6997,18.5781 Q221.356,18.5781 220.6685,19.6563 Q219.981,20.7188 219.981,22.8125 Q219.981,24.9063 220.6685,25.9844 Q221.356,27.0469 222.6997,27.0469 Q223.3247,27.0469 223.9185,26.7813 Q224.5122,26.5 225.1372,25.9219 L225.1372,28.6406 Z " fill="#FFFFFF"/><text fill="#FFFFFF" font-family="sans-serif" font-size="14" lengthAdjust="spacing" textLength="31.9102" x="242.6685" y="27.8467">User</text><line style="stroke:#E7E7E7;stroke-width:0.5;" x1="160.23" x2="324.5171" y1="39" y2="39"/><rect fill="none" height="6" style="stroke:#C82930;stroke-width:1;" width="6" x="167.23" y="49.6484"/><text fill="#FFFFFF" font-family="sans-serif" font-size="14" lengthAdjust="spacing" textLength="56.0684" x="179.23" y="55.9951">id: Long</text><rect fill="none" height="6" style="stroke:#C82930;stroke-width:1;" width="6" x="167.23" y="65.9453"/><text fill="#FFFFFF" font-family="sans-serif" font-size="14" lengthAdjust="spacing" textLength="121.1875" x="179.23" y="72.292">username: String</text><rect fill="none" height="6" style="stroke:#C82930;stroke-width:1;" width="6" x="167.23" y="82.2422"/><text fill="#FFFFFF" font-family="sans-serif" font-size="14" lengthAdjust="spacing" textLength="117.6602" x="179.23" y="88.5889">password: String</text><rect fill="none" height="6" style="stroke:#C82930;stroke-width:1;" width="6" x="167.23" y="98.5391"/><text fill="#FFFFFF" font-family="sans-serif" font-size="14" lengthAdjust="spacing" textLength="140.2871" x="179.23" y="104.8857">userType: UserType</text><line style="stroke:#E7E7E7;stroke-width:0.5;" x1="160.23" x2="324.5171" y1="112.1875" y2="112.1875"/></g><!--class Product--><g class="entity" data-entity="Product" data-source-line="13" data-uid="ent0004" id="entity_Product"><rect fill="#313139" height="113.1875" rx="2.5" ry="2.5" style="stroke:#E7E7E7;stroke-width:0.5;" width="122.6807" x="86.04" y="510.27"/><ellipse cx="117.6768" cy="526.27" fill="#2E5233" rx="11" ry="11" style="stroke:#E7E7E7;stroke-width:1;"/><path d="M120.6456,531.9106 Q120.0674,532.2075 119.4268,532.3481 Q118.7862,532.5044 118.0831,532.5044 Q115.5831,532.5044 114.2549,530.8638 Q112.9424,529.2075 112.9424,526.0825 Q112.9424,522.9575 114.2549,521.3013 Q115.5831,519.645 118.0831,519.645 Q118.7862,519.645 119.4268,519.8013 Q120.0831,519.9575 120.6456,520.2544 L120.6456,522.9731 Q120.0206,522.395 119.4268,522.1294 Q118.8331,521.8481 118.2081,521.8481 Q116.8643,521.8481 116.1768,522.9263 Q115.4893,523.9888 115.4893,526.0825 Q115.4893,528.1763 116.1768,529.2544 Q116.8643,530.3169 118.2081,530.3169 Q118.8331,530.3169 119.4268,530.0513 Q120.0206,529.77 120.6456,529.1919 L120.6456,531.9106 Z " fill="#FFFFFF"/><text fill="#FFFFFF" font-family="sans-serif" font-size="14" lengthAdjust="spacing" textLength="53.71" x="135.3739" y="531.1167">Product</text><line style="stroke:#E7E7E7;stroke-width:0.5;" x1="87.04" x2="207.7207" y1="542.27" y2="542.27"/><rect fill="none" height="6" style="stroke:#C82930;stroke-width:1;" width="6" x="94.04" y="552.9184"/><text fill="#FFFFFF" font-family="sans-serif" font-size="14" lengthAdjust="spacing" textLength="56.0684" x="106.04" y="559.2651">id: Long</text><rect fill="none" height="6" style="stroke:#C82930;stroke-width:1;" width="6" x="94.04" y="569.2153"/><text fill="#FFFFFF" font-family="sans-serif" font-size="14" lengthAdjust="spacing" textLength="90.6514" x="106.04" y="575.562">name: String</text><rect fill="none" height="6" style="stroke:#C82930;stroke-width:1;" width="6" x="94.04" y="585.5122"/><text fill="#FFFFFF" font-family="sans-serif" font-size="14" lengthAdjust="spacing" textLength="93.6182" x="106.04" y="591.8589">price: Double</text><rect fill="none" height="6" style="stroke:#C82930;stroke-width:1;" width="6" x="94.04" y="601.8091"/><text fill="#FFFFFF" font-family="sans-serif" font-size="14" lengthAdjust="spacing" textLength="96.6807" x="106.04" y="608.1557">stock: Integer</text><line style="stroke:#E7E7E7;stroke-width:0.5;" x1="87.04" x2="207.7207" y1="615.4575" y2="615.4575"/></g><!--class Sale--><g class="entity" data-entity="Sale" data-source-line="20" data-uid="ent0005" id="entity_Sale"><rect fill="#313139" height="96.8906" rx="2.5" ry="2.5" style="stroke:#E7E7E7;stroke-width:0.5;" width="171.8037" x="83.48" y="180.19"/><ellipse cx="150.1475" cy="196.19" fill="#2E5233" rx="11" ry="11" style="stroke:#E7E7E7;stroke-width:1;"/><path d="M153.1162,201.8306 Q152.5381,202.1275 151.8975,202.2681 Q151.2569,202.4244 150.5537,202.4244 Q148.0537,202.4244 146.7256,200.7837 Q145.4131,199.1275 145.4131,196.0025 Q145.4131,192.8775 146.7256,191.2212 Q148.0537,189.565 150.5537,189.565 Q151.2569,189.565 151.8975,189.7212 Q152.5537,189.8775 153.1162,190.1744 L153.1162,192.8931 Q152.4912,192.315 151.8975,192.0494 Q151.3037,191.7681 150.6787,191.7681 Q149.335,191.7681 148.6475,192.8462 Q147.96,193.9087 147.96,196.0025 Q147.96,198.0962 148.6475,199.1744 Q149.335,200.2369 150.6787,200.2369 Q151.3037,200.2369 151.8975,199.9712 Q152.4912,199.69 153.1162,199.1119 L153.1162,201.8306 Z " fill="#FFFFFF"/><text fill="#FFFFFF" font-family="sans-serif" font-size="14" lengthAdjust="spacing" textLength="29.9688" x="170.6475" y="201.0367">Sale</text><line style="stroke:#E7E7E7;stroke-width:0.5;" x1="84.48" x2="254.2837" y1="212.19" y2="212.19"/><rect fill="none" height="6" style="stroke:#C82930;stroke-width:1;" width="6" x="91.48" y="222.8384"/><text fill="#FFFFFF" font-family="sans-serif" font-size="14" lengthAdjust="spacing" textLength="56.0684" x="103.48" y="229.1851">id: Long</text><rect fill="none" height="6" style="stroke:#C82930;stroke-width:1;" width="6" x="91.48" y="239.1353"/><text fill="#FFFFFF" font-family="sans-serif" font-size="14" lengthAdjust="spacing" textLength="74.1973" x="103.48" y="245.482">date: Date</text><rect fill="none" height="6" style="stroke:#C82930;stroke-width:1;" width="6" x="91.48" y="255.4322"/><text fill="#FFFFFF" font-family="sans-serif" font-size="14" lengthAdjust="spacing" textLength="145.8037" x="103.48" y="261.7789">totalAmount: Double</text><line style="stroke:#E7E7E7;stroke-width:0.5;" x1="84.48" x2="254.2837" y1="269.0806" y2="269.0806"/></g><!--class SaleItem--><g class="entity" data-entity="SaleItem" data-source-line="26" data-uid="ent0006" id="entity_SaleItem"><rect fill="#313139" height="113.1875" rx="2.5" ry="2.5" style="stroke:#E7E7E7;stroke-width:0.5;" width="146.2988" x="74.23" y="337.08"/><ellipse cx="112.8374" cy="353.08" fill="#2E5233" rx="11" ry="11" style="stroke:#E7E7E7;stroke-width:1;"/><path d="M115.8062,358.7206 Q115.228,359.0175 114.5874,359.1581 Q113.9468,359.3144 113.2437,359.3144 Q110.7437,359.3144 109.4155,357.6737 Q108.103,356.0175 108.103,352.8925 Q108.103,349.7675 109.4155,348.1112 Q110.7437,346.455 113.2437,346.455 Q113.9468,346.455 114.5874,346.6112 Q115.2437,346.7675 115.8062,347.0644 L115.8062,349.7831 Q115.1812,349.205 114.5874,348.9394 Q113.9937,348.6581 113.3687,348.6581 Q112.0249,348.6581 111.3374,349.7362 Q110.6499,350.7987 110.6499,352.8925 Q110.6499,354.9862 111.3374,356.0644 Q112.0249,357.1269 113.3687,357.1269 Q113.9937,357.1269 114.5874,356.8612 Q115.1812,356.58 115.8062,356.0019 L115.8062,358.7206 Z " fill="#FFFFFF"/><text fill="#FFFFFF" font-family="sans-serif" font-size="14" lengthAdjust="spacing" textLength="61.8379" x="132.0835" y="357.9267">SaleItem</text><line style="stroke:#E7E7E7;stroke-width:0.5;" x1="75.23" x2="219.5288" y1="369.08" y2="369.08"/><rect fill="none" height="6" style="stroke:#C82930;stroke-width:1;" width="6" x="82.23" y="379.7284"/><text fill="#FFFFFF" font-family="sans-serif" font-size="14" lengthAdjust="spacing" textLength="56.0684" x="94.23" y="386.0751">id: Long</text><rect fill="none" height="6" style="stroke:#C82930;stroke-width:1;" width="6" x="82.23" y="396.0253"/><text fill="#FFFFFF" font-family="sans-serif" font-size="14" lengthAdjust="spacing" textLength="117.8926" x="94.23" y="402.372">quantity: Integer</text><rect fill="none" height="6" style="stroke:#C82930;stroke-width:1;" width="6" x="82.23" y="412.3222"/><text fill="#FFFFFF" font-family="sans-serif" font-size="14" lengthAdjust="spacing" textLength="120.2988" x="94.23" y="418.6689">unitPrice: Double</text><rect fill="none" height="6" style="stroke:#C82930;stroke-width:1;" width="6" x="82.23" y="428.6191"/><text fill="#FFFFFF" font-family="sans-serif" font-size="14" lengthAdjust="spacing" textLength="115.8418" x="94.23" y="434.9657">subtotal: Double</text><line style="stroke:#E7E7E7;stroke-width:0.5;" x1="75.23" x2="219.5288" y1="442.2675" y2="442.2675"/></g><!--class Income--><g class="entity" data-entity="Income" data-source-line="33" data-uid="ent0007" id="entity_Income"><rect fill="#313139" height="113.1875" rx="2.5" ry="2.5" style="stroke:#E7E7E7;stroke-width:0.5;" width="154.7891" x="255.98" y="337.08"/><ellipse cx="303.3667" cy="353.08" fill="#2E5233" rx="11" ry="11" style="stroke:#E7E7E7;stroke-width:1;"/><path d="M306.3355,358.7206 Q305.7573,359.0175 305.1167,359.1581 Q304.4761,359.3144 303.773,359.3144 Q301.273,359.3144 299.9448,357.6737 Q298.6323,356.0175 298.6323,352.8925 Q298.6323,349.7675 299.9448,348.1112 Q301.273,346.455 303.773,346.455 Q304.4761,346.455 305.1167,346.6112 Q305.773,346.7675 306.3355,347.0644 L306.3355,349.7831 Q305.7105,349.205 305.1167,348.9394 Q304.523,348.6581 303.898,348.6581 Q302.5542,348.6581 301.8667,349.7362 Q301.1792,350.7987 301.1792,352.8925 Q301.1792,354.9862 301.8667,356.0644 Q302.5542,357.1269 303.898,357.1269 Q304.523,357.1269 305.1167,356.8612 Q305.7105,356.58 306.3355,356.0019 L306.3355,358.7206 Z " fill="#FFFFFF"/><text fill="#FFFFFF" font-family="sans-serif" font-size="14" lengthAdjust="spacing" textLength="51.5156" x="323.8667" y="357.9267">Income</text><line style="stroke:#E7E7E7;stroke-width:0.5;" x1="256.98" x2="409.7691" y1="369.08" y2="369.08"/><rect fill="none" height="6" style="stroke:#C82930;stroke-width:1;" width="6" x="263.98" y="379.7284"/><text fill="#FFFFFF" font-family="sans-serif" font-size="14" lengthAdjust="spacing" textLength="56.0684" x="275.98" y="386.0751">id: Long</text><rect fill="none" height="6" style="stroke:#C82930;stroke-width:1;" width="6" x="263.98" y="396.0253"/><text fill="#FFFFFF" font-family="sans-serif" font-size="14" lengthAdjust="spacing" textLength="74.1973" x="275.98" y="402.372">date: Date</text><rect fill="none" height="6" style="stroke:#C82930;stroke-width:1;" width="6" x="263.98" y="412.3222"/><text fill="#FFFFFF" font-family="sans-serif" font-size="14" lengthAdjust="spacing" textLength="128.7891" x="275.98" y="418.6689">description: String</text><rect fill="none" height="6" style="stroke:#C82930;stroke-width:1;" width="6" x="263.98" y="428.6191"/><text fill="#FFFFFF" font-family="sans-serif" font-size="14" lengthAdjust="spacing" textLength="112.793" x="275.98" y="434.9657">amount: Double</text><line style="stroke:#E7E7E7;stroke-width:0.5;" x1="256.98" x2="409.7691" y1="442.2675" y2="442.2675"/></g><!--class Expense--><g class="entity" data-entity="Expense" data-source-line="40" data-uid="ent0008" id="entity_Expense"><rect fill="#313139" height="113.1875" rx="2.5" ry="2.5" style="stroke:#E7E7E7;stroke-width:0.5;" width="154.7891" x="385.98" y="510.27"/><ellipse cx="429.5001" cy="526.27" fill="#2E5233" rx="11" ry="11" style="stroke:#E7E7E7;stroke-width:1;"/><path d="M432.4688,531.9106 Q431.8907,532.2075 431.2501,532.3481 Q430.6094,532.5044 429.9063,532.5044 Q427.4063,532.5044 426.0782,530.8638 Q424.7657,529.2075 424.7657,526.0825 Q424.7657,522.9575 426.0782,521.3013 Q427.4063,519.645 429.9063,519.645 Q430.6094,519.645 431.2501,519.8013 Q431.9063,519.9575 432.4688,520.2544 L432.4688,522.9731 Q431.8438,522.395 431.2501,522.1294 Q430.6563,521.8481 430.0313,521.8481 Q428.6876,521.8481 428.0001,522.9263 Q427.3126,523.9888 427.3126,526.0825 Q427.3126,528.1763 428.0001,529.2544 Q428.6876,530.3169 430.0313,530.3169 Q430.6563,530.3169 431.2501,530.0513 Q431.8438,529.77 432.4688,529.1919 L432.4688,531.9106 Z " fill="#FFFFFF"/><text fill="#FFFFFF" font-family="sans-serif" font-size="14" lengthAdjust="spacing" textLength="59.4111" x="449.8379" y="531.1167">Expense</text><line style="stroke:#E7E7E7;stroke-width:0.5;" x1="386.98" x2="539.7691" y1="542.27" y2="542.27"/><rect fill="none" height="6" style="stroke:#C82930;stroke-width:1;" width="6" x="393.98" y="552.9184"/><text fill="#FFFFFF" font-family="sans-serif" font-size="14" lengthAdjust="spacing" textLength="56.0684" x="405.98" y="559.2651">id: Long</text><rect fill="none" height="6" style="stroke:#C82930;stroke-width:1;" width="6" x="393.98" y="569.2153"/><text fill="#FFFFFF" font-family="sans-serif" font-size="14" lengthAdjust="spacing" textLength="74.1973" x="405.98" y="575.562">date: Date</text><rect fill="none" height="6" style="stroke:#C82930;stroke-width:1;" width="6" x="393.98" y="585.5122"/><text fill="#FFFFFF" font-family="sans-serif" font-size="14" lengthAdjust="spacing" textLength="128.7891" x="405.98" y="591.8589">description: String</text><rect fill="none" height="6" style="stroke:#C82930;stroke-width:1;" width="6" x="393.98" y="601.8091"/><text fill="#FFFFFF" font-family="sans-serif" font-size="14" lengthAdjust="spacing" textLength="112.793" x="405.98" y="608.1557">amount: Double</text><line style="stroke:#E7E7E7;stroke-width:0.5;" x1="386.98" x2="539.7691" y1="615.4575" y2="615.4575"/></g><!--class Category--><g class="entity" data-entity="Category" data-source-line="47" data-uid="ent0009" id="entity_Category"><rect fill="#313139" height="80.5938" rx="2.5" ry="2.5" style="stroke:#E7E7E7;stroke-width:0.5;" width="116.6514" x="275.05" y="683.46"/><ellipse cx="299.3655" cy="699.46" fill="#2E5233" rx="11" ry="11" style="stroke:#E7E7E7;stroke-width:1;"/><path d="M302.3343,705.1006 Q301.7562,705.3975 301.1155,705.5381 Q300.4749,705.6944 299.7718,705.6944 Q297.2718,705.6944 295.9437,704.0537 Q294.6312,702.3975 294.6312,699.2725 Q294.6312,696.1475 295.9437,694.4912 Q297.2718,692.835 299.7718,692.835 Q300.4749,692.835 301.1155,692.9912 Q301.7718,693.1475 302.3343,693.4444 L302.3343,696.1631 Q301.7093,695.585 301.1155,695.3194 Q300.5218,695.0381 299.8968,695.0381 Q298.553,695.0381 297.8655,696.1162 Q297.178,697.1787 297.178,699.2725 Q297.178,701.3662 297.8655,702.4444 Q298.553,703.5069 299.8968,703.5069 Q300.5218,703.5069 301.1155,703.2412 Q301.7093,702.96 302.3343,702.3819 L302.3343,705.1006 Z " fill="#FFFFFF"/><text fill="#FFFFFF" font-family="sans-serif" font-size="14" lengthAdjust="spacing" textLength="63.9502" x="315.4356" y="704.3067">Category</text><line style="stroke:#E7E7E7;stroke-width:0.5;" x1="276.05" x2="390.7014" y1="715.46" y2="715.46"/><rect fill="none" height="6" style="stroke:#C82930;stroke-width:1;" width="6" x="283.05" y="726.1084"/><text fill="#FFFFFF" font-family="sans-serif" font-size="14" lengthAdjust="spacing" textLength="56.0684" x="295.05" y="732.4551">id: Long</text><rect fill="none" height="6" style="stroke:#C82930;stroke-width:1;" width="6" x="283.05" y="742.4053"/><text fill="#FFFFFF" font-family="sans-serif" font-size="14" lengthAdjust="spacing" textLength="90.6514" x="295.05" y="748.752">name: String</text><line style="stroke:#E7E7E7;stroke-width:0.5;" x1="276.05" x2="390.7014" y1="756.0537" y2="756.0537"/></g><!--link User to Income--><g class="link" data-entity-1="User" data-entity-2="Income" data-source-line="52" data-uid="lnk10" id="link_User_Income"><path codeLine="52" d="M257.92,120.62 C274.64,180.93 299.4855,270.5085 316.2255,330.8285" fill="none" id="User-to-Income" style="stroke:#E7E7E7;stroke-width:1;"/><polygon fill="#E7E7E7" points="317.83,336.61,319.2776,326.8681,316.4929,331.7921,311.569,329.0074,317.83,336.61" style="stroke:#E7E7E7;stroke-width:1;"/><text fill="#FFFFFF" font-family="sans-serif" font-size="13" lengthAdjust="spacing" textLength="8.271" x="251.2707" y="140.1554">1</text><text fill="#FFFFFF" font-family="sans-serif" font-size="13" lengthAdjust="spacing" textLength="23.0356" x="291.5361" y="325.8163">0..*</text></g><!--link User to Expense--><g class="link" data-entity-1="User" data-entity-2="Expense" data-source-line="53" data-uid="lnk11" id="link_User_Expense"><path codeLine="53" d="M291.82,120.56 C335.1,172.81 395.99,254.88 428.38,337.08 C450.55,393.34 458.3728,456.5319 461.3628,504.0019" fill="none" id="User-to-Expense" style="stroke:#E7E7E7;stroke-width:1;"/><polygon fill="#E7E7E7" points="461.74,509.99,465.1663,500.7563,461.4257,504.9999,457.1821,501.2593,461.74,509.99" style="stroke:#E7E7E7;stroke-width:1;"/><text fill="#FFFFFF" font-family="sans-serif" font-size="13" lengthAdjust="spacing" textLength="8.271" x="289.0904" y="140.0885">1</text><text fill="#FFFFFF" font-family="sans-serif" font-size="13" lengthAdjust="spacing" textLength="23.0356" x="437.1414" y="499.2194">0..*</text></g><!--link User to Product--><g class="link" data-entity-1="User" data-entity-2="Product" data-source-line="54" data-uid="lnk12" id="link_User_Product"><path codeLine="54" d="M158.79,114.81 C116.26,141.18 72.26,170.08 66.38,180.19 C6,284.03 17.06,336.77 56.38,450.27 C63.82,471.75 73.326,487.5795 87.466,505.2095" fill="none" id="User-to-Product" style="stroke:#E7E7E7;stroke-width:1;"/><polygon fill="#E7E7E7" points="91.22,509.89,88.7094,500.3665,88.0917,505.9895,82.4686,505.3718,91.22,509.89" style="stroke:#E7E7E7;stroke-width:1;"/><text fill="#FFFFFF" font-family="sans-serif" font-size="13" lengthAdjust="spacing" textLength="8.271" x="143.0017" y="115.7763">1</text><text fill="#FFFFFF" font-family="sans-serif" font-size="13" lengthAdjust="spacing" textLength="23.0356" x="59.9761" y="499.1072">0..*</text></g><!--link User to Sale--><g class="link" data-entity-1="User" data-entity-2="Sale" data-source-line="55" data-uid="lnk13" id="link_User_Sale"><path codeLine="55" d="M217.46,120.25 C208.79,139.62 201.591,155.6934 193.231,174.3734" fill="none" id="User-to-Sale" style="stroke:#E7E7E7;stroke-width:1;"/><polygon fill="#E7E7E7" points="190.78,179.85,198.1075,173.2691,192.8225,175.2862,190.8054,170.0012,190.78,179.85" style="stroke:#E7E7E7;stroke-width:1;"/><text fill="#FFFFFF" font-family="sans-serif" font-size="13" lengthAdjust="spacing" textLength="8.271" x="205.9527" y="140.144">1</text><text fill="#FFFFFF" font-family="sans-serif" font-size="13" lengthAdjust="spacing" textLength="23.0356" x="169.1744" y="169.0111">0..*</text></g><!--link Income to Category--><g class="link" data-entity-1="Income" data-entity-2="Category" data-source-line="57" data-uid="lnk14" id="link_Income_Category"><path codeLine="57" d="M333.38,450.7 C333.38,516.77 333.38,618.92 333.38,676.96" fill="none" id="Income-to-Category" style="stroke:#E7E7E7;stroke-width:1;"/><polygon fill="#E7E7E7" points="333.38,682.96,337.38,673.96,333.38,677.96,329.38,673.96,333.38,682.96" style="stroke:#E7E7E7;stroke-width:1;"/><text fill="#FFFFFF" font-family="sans-serif" font-size="13" lengthAdjust="spacing" textLength="8.271" x="324.9338" y="470.2354">1</text><text fill="#FFFFFF" font-family="sans-serif" font-size="13" lengthAdjust="spacing" textLength="24.8066" x="307.5325" y="672.3402">0..1</text></g><!--link Expense to Category--><g class="link" data-entity-1="Expense" data-entity-2="Category" data-source-line="58" data-uid="lnk15" id="link_Expense_Category"><path codeLine="58" d="M416.44,623.78 C399.86,643.54 385.4383,660.7351 370.2483,678.8251" fill="none" id="Expense-to-Category" style="stroke:#E7E7E7;stroke-width:1;"/><polygon fill="#E7E7E7" points="366.39,683.42,375.2408,679.0998,369.6053,679.5909,369.1142,673.9554,366.39,683.42" style="stroke:#E7E7E7;stroke-width:1;"/><text fill="#FFFFFF" font-family="sans-serif" font-size="13" lengthAdjust="spacing" textLength="8.271" x="402.2489" y="643.7057">1</text><text fill="#FFFFFF" font-family="sans-serif" font-size="13" lengthAdjust="spacing" textLength="24.8066" x="346.0712" y="672.2763">0..1</text></g><!--link Product to Category--><g class="link" data-entity-1="Product" data-entity-2="Category" data-source-line="59" data-uid="lnk16" id="link_Product_Category"><path codeLine="59" d="M209.05,619.22 C234.01,640.01 257.7694,659.7904 281.0894,679.2104" fill="none" id="Product-to-Category" style="stroke:#E7E7E7;stroke-width:1;"/><polygon fill="#E7E7E7" points="285.7,683.05,281.3438,674.2169,281.8578,679.8504,276.2244,680.3644,285.7,683.05" style="stroke:#E7E7E7;stroke-width:1;"/><text fill="#FFFFFF" font-family="sans-serif" font-size="13" lengthAdjust="spacing" textLength="8.271" x="216.6587" y="621.4811">1</text><text fill="#FFFFFF" font-family="sans-serif" font-size="13" lengthAdjust="spacing" textLength="24.8066" x="252.2535" y="672.4445">0..1</text></g><!--link Sale to SaleItem--><g class="link" data-entity-1="Sale" data-entity-2="SaleItem" data-source-line="61" data-uid="lnk17" id="link_Sale_SaleItem"><path codeLine="61" d="M162.96,277.23 C160.44,295.84 158.3551,311.3743 155.7351,330.7243" fill="none" id="Sale-to-SaleItem" style="stroke:#E7E7E7;stroke-width:1;"/><polygon fill="#E7E7E7" points="154.93,336.67,160.1014,328.2881,155.6009,331.7152,152.1738,327.2147,154.93,336.67" style="stroke:#E7E7E7;stroke-width:1;"/><text fill="#FFFFFF" font-family="sans-serif" font-size="13" lengthAdjust="spacing" textLength="8.271" x="153.5135" y="297.1945">1</text><text fill="#FFFFFF" font-family="sans-serif" font-size="13" lengthAdjust="spacing" textLength="23.0356" x="131.4508" y="325.8836">0..*</text></g><!--link SaleItem to Product--><g class="link" data-entity-1="SaleItem" data-entity-2="Product" data-source-line="62" data-uid="lnk18" id="link_SaleItem_Product"><path codeLine="62" d="M147.38,450.73 C147.38,469.74 147.38,484.97 147.38,503.98" fill="none" id="SaleItem-to-Product" style="stroke:#E7E7E7;stroke-width:1;"/><polygon fill="#E7E7E7" points="147.38,509.98,151.38,500.98,147.38,504.98,143.38,500.98,147.38,509.98" style="stroke:#E7E7E7;stroke-width:1;"/><text fill="#FFFFFF" font-family="sans-serif" font-size="13" lengthAdjust="spacing" textLength="8.271" x="138.9332" y="470.2689">1</text><text fill="#FFFFFF" font-family="sans-serif" font-size="13" lengthAdjust="spacing" textLength="8.271" x="138.909" y="499.2082">1</text></g><!--SRC=[jLB1QeGm5BpdAuB7Waltwg6mT3q8kwsmxQ77R7n8g2OsUQ6Lqdzl354hHjfBByQyoPkPl0n8sz9d0_gfxu1-4aeFntFnuDRyN9uUN_ASV1726sQCF-QFf5HK6JqfMVkDTNN9MiZe1RK8nSvrl2jTBOes26MJvCnUQbLPZZ61DRaMt5MEobuRy1M3Yhzcj908DUYPzS8QY55M30S2z_LRLCYQGwkin8bsmL4Wj36UDyia2kndQNzFAR1SUxHNhxDMA2HNxLzyLc2u5XqA9HS3OHlMyuyEfFaFvdlNM2lT__fUhiC79zadD4tlQ7AxszqauSfHA9YEOY4bKMnu9qB2B7zYxdUqIyQ9RE5Z3BTmuXCLKHuIGgQeJ0Vsa-Tl]--></g></svg>