<svg xmlns="http://www.w3.org/2000/svg" xmlns:xlink="http://www.w3.org/1999/xlink" contentStyleType="text/css" data-diagram-type="CLASS" height="855px" preserveAspectRatio="none" style="width:657px;height:855px;background:#1B1B1B;" version="1.1" viewBox="0 0 657 855" width="657px" zoomAndPan="magnify"><defs/><g><rect fill="#1B1B1B" height="855" style="stroke:none;stroke-width:1;" width="657" x="0" y="0"/><!--class Category--><g class="entity" data-entity="Category" data-source-line="2" data-uid="ent0002" id="entity_Category"><rect fill="#313139" height="80.5938" rx="2.5" ry="2.5" style="stroke:#E7E7E7;stroke-width:0.5;" width="152.1641" x="39.97" y="768.05"/><ellipse cx="80.2662" cy="784.05" fill="#352866" rx="11" ry="11" style="stroke:#E7E7E7;stroke-width:1;"/><path d="M76.1881,779.8156 L76.1881,777.6594 L83.5787,777.6594 L83.5787,779.8156 L81.11,779.8156 L81.11,787.8938 L83.5787,787.8938 L83.5787,790.05 L76.1881,790.05 L76.1881,787.8938 L78.6569,787.8938 L78.6569,779.8156 L76.1881,779.8156 Z " fill="#FFFFFF"/><text fill="#FFFFFF" font-family="sans-serif" font-size="14" font-style="italic" lengthAdjust="spacing" textLength="63.9502" x="99.8876" y="788.8967">Category</text><line style="stroke:#E7E7E7;stroke-width:0.5;" x1="40.97" x2="191.1341" y1="800.05" y2="800.05"/><line style="stroke:#E7E7E7;stroke-width:0.5;" x1="40.97" x2="191.1341" y1="808.05" y2="808.05"/><ellipse cx="50.97" cy="821.6984" fill="#84BE84" rx="3" ry="3" style="stroke:#038048;stroke-width:1;"/><text fill="#FFFFFF" font-family="sans-serif" font-size="14" lengthAdjust="spacing" textLength="97.877" x="59.97" y="825.0451">getId(): String</text><ellipse cx="50.97" cy="837.9953" fill="#84BE84" rx="3" ry="3" style="stroke:#038048;stroke-width:1;"/><text fill="#FFFFFF" font-family="sans-serif" font-size="14" lengthAdjust="spacing" textLength="126.1641" x="59.97" y="841.342">getName(): String</text></g><!--class TransactionCategory--><g class="entity" data-entity="TransactionCategory" data-source-line="7" data-uid="ent0003" id="entity_TransactionCategory"><rect fill="#313139" height="80.5938" rx="2.5" ry="2.5" style="stroke:#E7E7E7;stroke-width:0.5;" width="178.0977" x="7" y="626.45"/><ellipse cx="22" cy="642.45" fill="#2E5233" rx="11" ry="11" style="stroke:#E7E7E7;stroke-width:1;"/><path d="M24.9688,648.0906 Q24.3906,648.3875 23.75,648.5281 Q23.1094,648.6844 22.4063,648.6844 Q19.9063,648.6844 18.5781,647.0437 Q17.2656,645.3875 17.2656,642.2625 Q17.2656,639.1375 18.5781,637.4812 Q19.9063,635.825 22.4063,635.825 Q23.1094,635.825 23.75,635.9812 Q24.4063,636.1375 24.9688,636.4344 L24.9688,639.1531 Q24.3438,638.575 23.75,638.3094 Q23.1563,638.0281 22.5313,638.0281 Q21.1875,638.0281 20.5,639.1062 Q19.8125,640.1687 19.8125,642.2625 Q19.8125,644.3562 20.5,645.4344 Q21.1875,646.4969 22.5313,646.4969 Q23.1563,646.4969 23.75,646.2312 Q24.3438,645.95 24.9688,645.3719 L24.9688,648.0906 Z " fill="#FFFFFF"/><text fill="#FFFFFF" font-family="sans-serif" font-size="14" lengthAdjust="spacing" textLength="146.0977" x="36" y="647.2967">TransactionCategory</text><line style="stroke:#E7E7E7;stroke-width:0.5;" x1="8" x2="184.0977" y1="658.45" y2="658.45"/><rect fill="none" height="6" style="stroke:#C82930;stroke-width:1;" width="6" x="15" y="669.0984"/><text fill="#FFFFFF" font-family="sans-serif" font-size="14" lengthAdjust="spacing" textLength="63.7246" x="27" y="675.4451">id: String</text><rect fill="none" height="6" style="stroke:#C82930;stroke-width:1;" width="6" x="15" y="685.3953"/><text fill="#FFFFFF" font-family="sans-serif" font-size="14" lengthAdjust="spacing" textLength="90.6514" x="27" y="691.742">name: String</text><line style="stroke:#E7E7E7;stroke-width:0.5;" x1="8" x2="184.0977" y1="699.0437" y2="699.0437"/></g><!--class ProductCategory--><g class="entity" data-entity="ProductCategory" data-source-line="13" data-uid="ent0005" id="entity_ProductCategory"><rect fill="#313139" height="80.5938" rx="2.5" ry="2.5" style="stroke:#E7E7E7;stroke-width:0.5;" width="149.6602" x="220.22" y="626.45"/><ellipse cx="235.22" cy="642.45" fill="#2E5233" rx="11" ry="11" style="stroke:#E7E7E7;stroke-width:1;"/><path d="M238.1888,648.0906 Q237.6106,648.3875 236.97,648.5281 Q236.3294,648.6844 235.6263,648.6844 Q233.1263,648.6844 231.7981,647.0437 Q230.4856,645.3875 230.4856,642.2625 Q230.4856,639.1375 231.7981,637.4812 Q233.1263,635.825 235.6263,635.825 Q236.3294,635.825 236.97,635.9812 Q237.6263,636.1375 238.1888,636.4344 L238.1888,639.1531 Q237.5638,638.575 236.97,638.3094 Q236.3763,638.0281 235.7513,638.0281 Q234.4075,638.0281 233.72,639.1062 Q233.0325,640.1687 233.0325,642.2625 Q233.0325,644.3562 233.72,645.4344 Q234.4075,646.4969 235.7513,646.4969 Q236.3763,646.4969 236.97,646.2312 Q237.5638,645.95 238.1888,645.3719 L238.1888,648.0906 Z " fill="#FFFFFF"/><text fill="#FFFFFF" font-family="sans-serif" font-size="14" lengthAdjust="spacing" textLength="117.6602" x="249.22" y="647.2967">ProductCategory</text><line style="stroke:#E7E7E7;stroke-width:0.5;" x1="221.22" x2="368.8802" y1="658.45" y2="658.45"/><rect fill="none" height="6" style="stroke:#C82930;stroke-width:1;" width="6" x="228.22" y="669.0984"/><text fill="#FFFFFF" font-family="sans-serif" font-size="14" lengthAdjust="spacing" textLength="63.7246" x="240.22" y="675.4451">id: String</text><rect fill="none" height="6" style="stroke:#C82930;stroke-width:1;" width="6" x="228.22" y="685.3953"/><text fill="#FFFFFF" font-family="sans-serif" font-size="14" lengthAdjust="spacing" textLength="90.6514" x="240.22" y="691.742">name: String</text><line style="stroke:#E7E7E7;stroke-width:0.5;" x1="221.22" x2="368.8802" y1="699.0437" y2="699.0437"/></g><!--class Transaction--><g class="entity" data-entity="Transaction" data-source-line="20" data-uid="ent0007" id="entity_Transaction"><rect fill="#313139" height="129.4844" rx="2.5" ry="2.5" style="stroke:#E7E7E7;stroke-width:0.5;" width="208.5537" x="441.77" y="197.19"/><ellipse cx="500.7231" cy="213.19" fill="#2A5D60" rx="11" ry="11" style="stroke:#E7E7E7;stroke-width:1;"/><path d="M500.8325,208.5337 L499.6763,213.6119 L502.0044,213.6119 L500.8325,208.5337 Z M499.3481,206.2994 L502.3325,206.2994 L505.6919,218.69 L503.2388,218.69 L502.4731,215.6275 L499.1919,215.6275 L498.4419,218.69 L496.0044,218.69 L499.3481,206.2994 Z " fill="#FFFFFF"/><text fill="#FFFFFF" font-family="sans-serif" font-size="14" font-style="italic" lengthAdjust="spacing" textLength="82.1475" x="521.2231" y="218.0367">Transaction</text><line style="stroke:#E7E7E7;stroke-width:0.5;" x1="442.77" x2="649.3237" y1="229.19" y2="229.19"/><rect fill="none" height="6" style="stroke:#C82930;stroke-width:1;" width="6" x="449.77" y="239.8384"/><text fill="#FFFFFF" font-family="sans-serif" font-size="14" lengthAdjust="spacing" textLength="63.7246" x="461.77" y="246.1851">id: String</text><rect fill="none" height="6" style="stroke:#C82930;stroke-width:1;" width="6" x="449.77" y="256.1353"/><text fill="#FFFFFF" font-family="sans-serif" font-size="14" lengthAdjust="spacing" textLength="182.5537" x="461.77" y="262.482">createdAt: LocalDateTime</text><rect fill="none" height="6" style="stroke:#C82930;stroke-width:1;" width="6" x="449.77" y="272.4322"/><text fill="#FFFFFF" font-family="sans-serif" font-size="14" lengthAdjust="spacing" textLength="128.7891" x="461.77" y="278.7789">description: String</text><rect fill="none" height="6" style="stroke:#C82930;stroke-width:1;" width="6" x="449.77" y="288.7291"/><text fill="#FFFFFF" font-family="sans-serif" font-size="14" lengthAdjust="spacing" textLength="110.8994" x="461.77" y="295.0757">amount: double</text><rect fill="none" height="6" style="stroke:#C82930;stroke-width:1;" width="6" x="449.77" y="305.0259"/><text fill="#FFFFFF" font-family="sans-serif" font-size="14" lengthAdjust="spacing" textLength="125.8359" x="461.77" y="311.3726">categoryId: String</text><line style="stroke:#E7E7E7;stroke-width:0.5;" x1="442.77" x2="649.3237" y1="318.6744" y2="318.6744"/></g><!--class Income--><g class="entity" data-entity="Income" data-source-line="29" data-uid="ent0008" id="entity_Income"><rect fill="#313139" height="48" rx="2.5" ry="2.5" style="stroke:#E7E7E7;stroke-width:0.5;" width="83.5156" x="422.29" y="39.59"/><ellipse cx="437.29" cy="55.59" fill="#2E5233" rx="11" ry="11" style="stroke:#E7E7E7;stroke-width:1;"/><path d="M440.2588,61.2306 Q439.6806,61.5275 439.04,61.6681 Q438.3994,61.8244 437.6963,61.8244 Q435.1963,61.8244 433.8681,60.1838 Q432.5556,58.5275 432.5556,55.4025 Q432.5556,52.2775 433.8681,50.6213 Q435.1963,48.965 437.6963,48.965 Q438.3994,48.965 439.04,49.1213 Q439.6963,49.2775 440.2588,49.5744 L440.2588,52.2931 Q439.6338,51.715 439.04,51.4494 Q438.4463,51.1681 437.8213,51.1681 Q436.4775,51.1681 435.79,52.2463 Q435.1025,53.3088 435.1025,55.4025 Q435.1025,57.4963 435.79,58.5744 Q436.4775,59.6369 437.8213,59.6369 Q438.4463,59.6369 439.04,59.3713 Q439.6338,59.09 440.2588,58.5119 L440.2588,61.2306 Z " fill="#FFFFFF"/><text fill="#FFFFFF" font-family="sans-serif" font-size="14" lengthAdjust="spacing" textLength="51.5156" x="451.29" y="60.4367">Income</text><line style="stroke:#E7E7E7;stroke-width:0.5;" x1="423.29" x2="504.8056" y1="71.59" y2="71.59"/><line style="stroke:#E7E7E7;stroke-width:0.5;" x1="423.29" x2="504.8056" y1="79.59" y2="79.59"/></g><!--class Expense--><g class="entity" data-entity="Expense" data-source-line="30" data-uid="ent0009" id="entity_Expense"><rect fill="#313139" height="48" rx="2.5" ry="2.5" style="stroke:#E7E7E7;stroke-width:0.5;" width="91.4111" x="540.34" y="39.59"/><ellipse cx="555.34" cy="55.59" fill="#2E5233" rx="11" ry="11" style="stroke:#E7E7E7;stroke-width:1;"/><path d="M558.3088,61.2306 Q557.7306,61.5275 557.09,61.6681 Q556.4494,61.8244 555.7463,61.8244 Q553.2463,61.8244 551.9181,60.1838 Q550.6056,58.5275 550.6056,55.4025 Q550.6056,52.2775 551.9181,50.6213 Q553.2463,48.965 555.7463,48.965 Q556.4494,48.965 557.09,49.1213 Q557.7463,49.2775 558.3088,49.5744 L558.3088,52.2931 Q557.6838,51.715 557.09,51.4494 Q556.4963,51.1681 555.8713,51.1681 Q554.5275,51.1681 553.84,52.2463 Q553.1525,53.3088 553.1525,55.4025 Q553.1525,57.4963 553.84,58.5744 Q554.5275,59.6369 555.8713,59.6369 Q556.4963,59.6369 557.09,59.3713 Q557.6838,59.09 558.3088,58.5119 L558.3088,61.2306 Z " fill="#FFFFFF"/><text fill="#FFFFFF" font-family="sans-serif" font-size="14" lengthAdjust="spacing" textLength="59.4111" x="569.34" y="60.4367">Expense</text><line style="stroke:#E7E7E7;stroke-width:0.5;" x1="541.34" x2="630.7511" y1="71.59" y2="71.59"/><line style="stroke:#E7E7E7;stroke-width:0.5;" x1="541.34" x2="630.7511" y1="79.59" y2="79.59"/></g><!--class Product--><g class="entity" data-entity="Product" data-source-line="35" data-uid="ent0012" id="entity_Product"><rect fill="#313139" height="145.7813" rx="2.5" ry="2.5" style="stroke:#E7E7E7;stroke-width:0.5;" width="154.7891" x="217.65" y="403.67"/><ellipse cx="263.9396" cy="419.67" fill="#2E5233" rx="11" ry="11" style="stroke:#E7E7E7;stroke-width:1;"/><path d="M266.9083,425.3106 Q266.3302,425.6075 265.6896,425.7481 Q265.0489,425.9044 264.3458,425.9044 Q261.8458,425.9044 260.5177,424.2637 Q259.2052,422.6075 259.2052,419.4825 Q259.2052,416.3575 260.5177,414.7012 Q261.8458,413.045 264.3458,413.045 Q265.0489,413.045 265.6896,413.2012 Q266.3458,413.3575 266.9083,413.6544 L266.9083,416.3731 Q266.2833,415.795 265.6896,415.5294 Q265.0958,415.2481 264.4708,415.2481 Q263.1271,415.2481 262.4396,416.3262 Q261.7521,417.3887 261.7521,419.4825 Q261.7521,421.5762 262.4396,422.6544 Q263.1271,423.7169 264.4708,423.7169 Q265.0958,423.7169 265.6896,423.4512 Q266.2833,423.17 266.9083,422.5919 L266.9083,425.3106 Z " fill="#FFFFFF"/><text fill="#FFFFFF" font-family="sans-serif" font-size="14" lengthAdjust="spacing" textLength="53.71" x="284.4396" y="424.5167">Product</text><line style="stroke:#E7E7E7;stroke-width:0.5;" x1="218.65" x2="371.4391" y1="435.67" y2="435.67"/><rect fill="none" height="6" style="stroke:#C82930;stroke-width:1;" width="6" x="225.65" y="446.3184"/><text fill="#FFFFFF" font-family="sans-serif" font-size="14" lengthAdjust="spacing" textLength="63.7246" x="237.65" y="452.6651">id: String</text><rect fill="none" height="6" style="stroke:#C82930;stroke-width:1;" width="6" x="225.65" y="462.6153"/><text fill="#FFFFFF" font-family="sans-serif" font-size="14" lengthAdjust="spacing" textLength="90.6514" x="237.65" y="468.962">name: String</text><rect fill="none" height="6" style="stroke:#C82930;stroke-width:1;" width="6" x="225.65" y="478.9122"/><text fill="#FFFFFF" font-family="sans-serif" font-size="14" lengthAdjust="spacing" textLength="128.7891" x="237.65" y="485.2589">description: String</text><rect fill="none" height="6" style="stroke:#C82930;stroke-width:1;" width="6" x="225.65" y="495.2091"/><text fill="#FFFFFF" font-family="sans-serif" font-size="14" lengthAdjust="spacing" textLength="91.7246" x="237.65" y="501.5557">price: double</text><rect fill="none" height="6" style="stroke:#C82930;stroke-width:1;" width="6" x="225.65" y="511.5059"/><text fill="#FFFFFF" font-family="sans-serif" font-size="14" lengthAdjust="spacing" textLength="96.6807" x="237.65" y="517.8526">stock: Integer</text><rect fill="none" height="6" style="stroke:#C82930;stroke-width:1;" width="6" x="225.65" y="527.8028"/><text fill="#FFFFFF" font-family="sans-serif" font-size="14" lengthAdjust="spacing" textLength="125.8359" x="237.65" y="534.1495">categoryId: String</text><line style="stroke:#E7E7E7;stroke-width:0.5;" x1="218.65" x2="371.4391" y1="541.4513" y2="541.4513"/></g><!--class SaleItem--><g class="entity" data-entity="SaleItem" data-source-line="47" data-uid="ent0014" id="entity_SaleItem"><rect fill="#313139" height="113.1875" rx="2.5" ry="2.5" style="stroke:#E7E7E7;stroke-width:0.5;" width="144.1182" x="222.99" y="205.34"/><ellipse cx="260.6161" cy="221.34" fill="#2E5233" rx="11" ry="11" style="stroke:#E7E7E7;stroke-width:1;"/><path d="M263.5849,226.9806 Q263.0067,227.2775 262.3661,227.4181 Q261.7255,227.5744 261.0224,227.5744 Q258.5224,227.5744 257.1942,225.9338 Q255.8817,224.2775 255.8817,221.1525 Q255.8817,218.0275 257.1942,216.3713 Q258.5224,214.715 261.0224,214.715 Q261.7255,214.715 262.3661,214.8713 Q263.0224,215.0275 263.5849,215.3244 L263.5849,218.0431 Q262.9599,217.465 262.3661,217.1994 Q261.7724,216.9181 261.1474,216.9181 Q259.8036,216.9181 259.1161,217.9963 Q258.4286,219.0588 258.4286,221.1525 Q258.4286,223.2463 259.1161,224.3244 Q259.8036,225.3869 261.1474,225.3869 Q261.7724,225.3869 262.3661,225.1213 Q262.9599,224.84 263.5849,224.2619 L263.5849,226.9806 Z " fill="#FFFFFF"/><text fill="#FFFFFF" font-family="sans-serif" font-size="14" lengthAdjust="spacing" textLength="61.8379" x="279.6442" y="226.1867">SaleItem</text><line style="stroke:#E7E7E7;stroke-width:0.5;" x1="223.99" x2="366.1082" y1="237.34" y2="237.34"/><rect fill="none" height="6" style="stroke:#C82930;stroke-width:1;" width="6" x="230.99" y="247.9884"/><text fill="#FFFFFF" font-family="sans-serif" font-size="14" lengthAdjust="spacing" textLength="63.7246" x="242.99" y="254.3351">id: String</text><rect fill="none" height="6" style="stroke:#C82930;stroke-width:1;" width="6" x="230.99" y="264.2853"/><text fill="#FFFFFF" font-family="sans-serif" font-size="14" lengthAdjust="spacing" textLength="118.1182" x="242.99" y="270.632">productId: String</text><rect fill="none" height="6" style="stroke:#C82930;stroke-width:1;" width="6" x="230.99" y="280.5822"/><text fill="#FFFFFF" font-family="sans-serif" font-size="14" lengthAdjust="spacing" textLength="85.7842" x="242.99" y="286.9289">quantity: int</text><rect fill="none" height="6" style="stroke:#C82930;stroke-width:1;" width="6" x="230.99" y="296.8791"/><text fill="#FFFFFF" font-family="sans-serif" font-size="14" lengthAdjust="spacing" textLength="91.7246" x="242.99" y="303.2257">price: double</text><line style="stroke:#E7E7E7;stroke-width:0.5;" x1="223.99" x2="366.1082" y1="310.5275" y2="310.5275"/></g><!--class Sale--><g class="entity" data-entity="Sale" data-source-line="55" data-uid="ent0015" id="entity_Sale"><rect fill="#313139" height="113.1875" rx="2.5" ry="2.5" style="stroke:#E7E7E7;stroke-width:0.5;" width="183.8623" x="203.12" y="7"/><ellipse cx="275.8168" cy="23" fill="#2E5233" rx="11" ry="11" style="stroke:#E7E7E7;stroke-width:1;"/><path d="M278.7855,28.6406 Q278.2074,28.9375 277.5668,29.0781 Q276.9262,29.2344 276.223,29.2344 Q273.723,29.2344 272.3949,27.5938 Q271.0824,25.9375 271.0824,22.8125 Q271.0824,19.6875 272.3949,18.0313 Q273.723,16.375 276.223,16.375 Q276.9262,16.375 277.5668,16.5313 Q278.223,16.6875 278.7855,16.9844 L278.7855,19.7031 Q278.1605,19.125 277.5668,18.8594 Q276.973,18.5781 276.348,18.5781 Q275.0043,18.5781 274.3168,19.6563 Q273.6293,20.7188 273.6293,22.8125 Q273.6293,24.9063 274.3168,25.9844 Q275.0043,27.0469 276.348,27.0469 Q276.973,27.0469 277.5668,26.7813 Q278.1605,26.5 278.7855,25.9219 L278.7855,28.6406 Z " fill="#FFFFFF"/><text fill="#FFFFFF" font-family="sans-serif" font-size="14" lengthAdjust="spacing" textLength="29.9688" x="296.3168" y="27.8467">Sale</text><line style="stroke:#E7E7E7;stroke-width:0.5;" x1="204.12" x2="385.9823" y1="39" y2="39"/><rect fill="none" height="6" style="stroke:#C82930;stroke-width:1;" width="6" x="211.12" y="49.6484"/><text fill="#FFFFFF" font-family="sans-serif" font-size="14" lengthAdjust="spacing" textLength="63.7246" x="223.12" y="55.9951">id: String</text><rect fill="none" height="6" style="stroke:#C82930;stroke-width:1;" width="6" x="211.12" y="65.9453"/><text fill="#FFFFFF" font-family="sans-serif" font-size="14" lengthAdjust="spacing" textLength="110.7285" x="223.12" y="72.292">date: LocalDate</text><rect fill="none" height="6" style="stroke:#C82930;stroke-width:1;" width="6" x="211.12" y="82.2422"/><text fill="#FFFFFF" font-family="sans-serif" font-size="14" lengthAdjust="spacing" textLength="157.8623" x="223.12" y="88.5889">items: List&lt;SaleItem&gt;</text><rect fill="none" height="6" style="stroke:#C82930;stroke-width:1;" width="6" x="211.12" y="98.5391"/><text fill="#FFFFFF" font-family="sans-serif" font-size="14" lengthAdjust="spacing" textLength="143.9102" x="223.12" y="104.8857">totalAmount: double</text><line style="stroke:#E7E7E7;stroke-width:0.5;" x1="204.12" x2="385.9823" y1="112.1875" y2="112.1875"/></g><!--link TransactionCategory to Category--><g class="link" data-entity-1="TransactionCategory" data-entity-2="Category" data-source-line="11" data-uid="lnk4" id="link_TransactionCategory_Category"><path codeLine="11" d="M101.73,707.38 C104.43,726.24 105.0925,730.9226 107.8025,749.8026" fill="none" id="TransactionCategory-to-Category" style="stroke:#E7E7E7;stroke-width:1;stroke-dasharray:7,7;"/><polygon fill="none" points="110.36,767.62,113.7417,748.9501,101.8634,750.6551,110.36,767.62" style="stroke:#E7E7E7;stroke-width:1;"/></g><!--link ProductCategory to Category--><g class="link" data-entity-1="ProductCategory" data-entity-2="Category" data-source-line="17" data-uid="lnk6" id="link_ProductCategory_Category"><path codeLine="17" d="M244.23,707.38 C220.05,726.24 205.3819,737.668 181.1819,756.548" fill="none" id="ProductCategory-to-Category" style="stroke:#E7E7E7;stroke-width:1;stroke-dasharray:7,7;"/><polygon fill="none" points="166.99,767.62,184.8726,761.2786,177.4912,751.8173,166.99,767.62" style="stroke:#E7E7E7;stroke-width:1;"/></g><!--link Income to Transaction--><g class="link" data-entity-1="Income" data-entity-2="Transaction" data-source-line="31" data-uid="lnk10" id="link_Income_Transaction"><path codeLine="31" d="M473.78,87.89 C484.93,114.6 496.7637,142.9201 512.3737,180.3001" fill="none" id="Income-to-Transaction" style="stroke:#E7E7E7;stroke-width:1;"/><polygon fill="none" points="519.31,196.91,517.9103,177.988,506.8371,182.6123,519.31,196.91" style="stroke:#E7E7E7;stroke-width:1;"/></g><!--link Expense to Transaction--><g class="link" data-entity-1="Expense" data-entity-2="Transaction" data-source-line="32" data-uid="lnk11" id="link_Expense_Transaction"><path codeLine="32" d="M581.3,87.89 C575.86,114.6 570.3054,141.8927 562.6854,179.2727" fill="none" id="Expense-to-Transaction" style="stroke:#E7E7E7;stroke-width:1;"/><polygon fill="none" points="559.09,196.91,568.5645,180.4712,556.8063,178.0743,559.09,196.91" style="stroke:#E7E7E7;stroke-width:1;"/></g><!--link Product to ProductCategory--><g class="link" data-entity-1="Product" data-entity-2="ProductCategory" data-source-line="44" data-uid="lnk13" id="link_Product_ProductCategory"><path codeLine="44" d="M295.05,549.78 C295.05,575.69 295.05,597.95 295.05,620.08" fill="none" id="Product-to-ProductCategory" style="stroke:#E7E7E7;stroke-width:1;"/><polygon fill="#E7E7E7" points="295.05,626.08,299.05,617.08,295.05,621.08,291.05,617.08,295.05,626.08" style="stroke:#E7E7E7;stroke-width:1;"/><text fill="#FFFFFF" font-family="sans-serif" font-size="13" lengthAdjust="spacing" textLength="69.5386" x="296.05" y="592.5169">categoryId</text></g><!--link Sale to SaleItem--><g class="link" data-entity-1="Sale" data-entity-2="SaleItem" data-source-line="62" data-uid="lnk16" id="link_Sale_SaleItem"><path codeLine="62" d="M295.05,120.59 C295.05,147 295.05,172.44 295.05,198.86" fill="none" id="Sale-to-SaleItem" style="stroke:#E7E7E7;stroke-width:1;"/><polygon fill="#E7E7E7" points="295.05,204.86,299.05,195.86,295.05,199.86,291.05,195.86,295.05,204.86" style="stroke:#E7E7E7;stroke-width:1;"/><text fill="#FFFFFF" font-family="sans-serif" font-size="13" lengthAdjust="spacing" textLength="56.2847" x="296.05" y="163.2569">contiene</text><text fill="#FFFFFF" font-family="sans-serif" font-size="13" lengthAdjust="spacing" textLength="8.271" x="286.603" y="140.122">1</text><text fill="#FFFFFF" font-family="sans-serif" font-size="13" lengthAdjust="spacing" textLength="6.5" x="288.7321" y="194.4682">*</text></g><!--link SaleItem to Product--><g class="link" data-entity-1="SaleItem" data-entity-2="Product" data-source-line="63" data-uid="lnk17" id="link_SaleItem_Product"><path codeLine="63" d="M295.05,318.8 C295.05,344.64 295.05,369.65 295.05,397.25" fill="none" id="SaleItem-to-Product" style="stroke:#E7E7E7;stroke-width:1;"/><polygon fill="#E7E7E7" points="295.05,403.25,299.05,394.25,295.05,398.25,291.05,394.25,295.05,403.25" style="stroke:#E7E7E7;stroke-width:1;"/><text fill="#FFFFFF" font-family="sans-serif" font-size="13" lengthAdjust="spacing" textLength="89.4829" x="296.05" y="369.7369">usa productId</text></g><!--SRC=[bLFDJkCm4BxdAKQzb0K5YMk4AfaGK2HKK9CJDzSUYaLY5zkHg817sDC-4Y-s0pZKJIa_kLYUyNn_TiPGJkjYTiQkuRI0dDN5-UNivIzBbFPeRxX0oBd7XR4hU4o0lWDOe2_btfyCAc-LNgohKzvYL7zE4j5mvw2sN3ikl39w09Q2aXiuAMW2YI0-cpqyV9fyoEf9hgoHdV2_9XZE3S37a5-mgW1sKjKpbjSCQ9bMBC_Bbt_JXC-TjoGFjfpk5Y0i4hnaFeCB8tXpIhjQjHZQ4fsmQlcACHZahUaqJKdJpPl-k0XIIna7FuPI2zCYhA1uMA9s2BTeKN9D-B7CaDxxwR094qc0I5DA91xf4RSQH1lYD9ktyiFR-2w0fLK21_wTD-8k8mCK0zelG-d5fEbawxbaqSohZuetM7fiWuz-kzl8yXsm7DRlEwwzygiCw9VwrCTppnTnxUQH93DwEFqnqkQeh9m_xhLEGiyRpnks-NQ8yurcT3HwYsEqFrfxf2mCQKQDoKSjoepwdUDhm_y1]--></g></svg>