<svg xmlns="http://www.w3.org/2000/svg" xmlns:xlink="http://www.w3.org/1999/xlink" contentStyleType="text/css" data-diagram-type="ACTIVITY" height="666px" preserveAspectRatio="none" style="width:388px;height:666px;background:#1B1B1B;" version="1.1" viewBox="0 0 388 666" width="388px" zoomAndPan="magnify"><defs/><g><rect fill="#1B1B1B" height="666" style="stroke:none;stroke-width:1;" width="388" x="0" y="0"/><ellipse cx="173.0044" cy="20" fill="#DDDDDD" rx="10" ry="10" style="stroke:#DDDDDD;stroke-width:1;"/><rect fill="#313139" height="33.9688" rx="12.5" ry="12.5" style="stroke:#E7E7E7;stroke-width:0.5;" width="119.3223" x="113.3433" y="50"/><text fill="#FFFFFF" font-family="sans-serif" font-size="12" lengthAdjust="spacing" textLength="99.3223" x="123.3433" y="71.1387">Start application</text><rect fill="#313139" height="33.9688" rx="12.5" ry="12.5" style="stroke:#E7E7E7;stroke-width:0.5;" width="188.668" x="78.6704" y="103.9688"/><text fill="#FFFFFF" font-family="sans-serif" font-size="12" lengthAdjust="spacing" textLength="168.668" x="88.6704" y="125.1074">Check if database file exists</text><polygon fill="#313139" points="126.3296,157.9375,219.6792,157.9375,231.6792,169.9375,219.6792,181.9375,126.3296,181.9375,114.3296,169.9375,126.3296,157.9375" style="stroke:#E7E7E7;stroke-width:0.5;"/><text fill="#FFFFFF" font-family="sans-serif" font-size="11" lengthAdjust="spacing" textLength="93.3496" x="126.3296" y="173.7456">Database found?</text><text fill="#FFFFFF" font-family="sans-serif" font-size="11" lengthAdjust="spacing" textLength="19.2178" x="95.1118" y="167.3433">Yes</text><text fill="#FFFFFF" font-family="sans-serif" font-size="11" lengthAdjust="spacing" textLength="14.9585" x="231.6792" y="167.3433">No</text><rect fill="#313139" height="33.9688" rx="12.5" ry="12.5" style="stroke:#E7E7E7;stroke-width:0.5;" width="130.9883" x="11" y="191.9375"/><text fill="#FFFFFF" font-family="sans-serif" font-size="12" lengthAdjust="spacing" textLength="110.9883" x="21" y="213.0762">Load existing data</text><rect fill="#313139" height="33.9688" rx="12.5" ry="12.5" style="stroke:#E7E7E7;stroke-width:0.5;" width="215.0527" x="161.9883" y="191.9375"/><text fill="#FFFFFF" font-family="sans-serif" font-size="12" lengthAdjust="spacing" textLength="195.0527" x="171.9883" y="213.0762">Create new database and tables</text><polygon fill="#313139" points="173.0044,231.9063,185.0044,243.9063,173.0044,255.9063,161.0044,243.9063,173.0044,231.9063" style="stroke:#E7E7E7;stroke-width:0.5;"/><rect fill="#313139" height="33.9688" rx="12.5" ry="12.5" style="stroke:#E7E7E7;stroke-width:0.5;" width="124.2734" x="110.8677" y="275.9063"/><text fill="#FFFFFF" font-family="sans-serif" font-size="12" lengthAdjust="spacing" textLength="104.2734" x="120.8677" y="297.0449">Show main menu</text><rect fill="#313139" height="33.9688" rx="12.5" ry="12.5" style="stroke:#E7E7E7;stroke-width:0.5;" width="188.3398" x="78.8345" y="373.875"/><text fill="#FFFFFF" font-family="sans-serif" font-size="12" lengthAdjust="spacing" textLength="168.3398" x="88.8345" y="395.0137">Register income or expense</text><rect fill="#313139" height="33.9688" rx="12.5" ry="12.5" style="stroke:#E7E7E7;stroke-width:0.5;" width="93.8281" x="126.0903" y="427.8438"/><text fill="#FFFFFF" font-family="sans-serif" font-size="12" lengthAdjust="spacing" textLength="73.8281" x="136.0903" y="448.9824">View history</text><rect fill="#313139" height="33.9688" rx="12.5" ry="12.5" style="stroke:#E7E7E7;stroke-width:0.5;" width="95.7207" x="125.144" y="481.8125"/><text fill="#FFFFFF" font-family="sans-serif" font-size="12" lengthAdjust="spacing" textLength="75.7207" x="135.144" y="502.9512">View reports</text><polygon fill="#313139" points="173.0044,329.875,185.0044,341.875,173.0044,353.875,161.0044,341.875,173.0044,329.875" style="stroke:#E7E7E7;stroke-width:0.5;"/><polygon fill="#313139" points="100.0112,535.7813,245.9976,535.7813,257.9976,547.7813,245.9976,559.7813,100.0112,559.7813,88.0112,547.7813,100.0112,535.7813" style="stroke:#E7E7E7;stroke-width:0.5;"/><text fill="#FFFFFF" font-family="sans-serif" font-size="11" lengthAdjust="spacing" textLength="145.9863" x="100.0112" y="551.5894">User keeps using the app?</text><rect fill="#313139" height="33.9688" rx="12.5" ry="12.5" style="stroke:#E7E7E7;stroke-width:0.5;" width="103.6836" x="121.1626" y="579.7813"/><text fill="#FFFFFF" font-family="sans-serif" font-size="12" lengthAdjust="spacing" textLength="83.6836" x="131.1626" y="600.9199">Save changes</text><ellipse cx="173.0044" cy="644.75" fill="none" rx="11" ry="11" style="stroke:#DDDDDD;stroke-width:1;"/><ellipse cx="173.0044" cy="644.75" fill="#DDDDDD" rx="6" ry="6" style="stroke:#DDDDDD;stroke-width:1;"/><line style="stroke:#E7E7E7;stroke-width:1;" x1="173.0044" x2="173.0044" y1="30" y2="50"/><polygon fill="#E7E7E7" points="169.0044,40,173.0044,50,177.0044,40,173.0044,44" style="stroke:#E7E7E7;stroke-width:1;"/><line style="stroke:#E7E7E7;stroke-width:1;" x1="173.0044" x2="173.0044" y1="83.9688" y2="103.9688"/><polygon fill="#E7E7E7" points="169.0044,93.9688,173.0044,103.9688,177.0044,93.9688,173.0044,97.9688" style="stroke:#E7E7E7;stroke-width:1;"/><line style="stroke:#E7E7E7;stroke-width:1;" x1="114.3296" x2="76.4941" y1="169.9375" y2="169.9375"/><line style="stroke:#E7E7E7;stroke-width:1;" x1="76.4941" x2="76.4941" y1="169.9375" y2="191.9375"/><polygon fill="#E7E7E7" points="72.4941,181.9375,76.4941,191.9375,80.4941,181.9375,76.4941,185.9375" style="stroke:#E7E7E7;stroke-width:1;"/><line style="stroke:#E7E7E7;stroke-width:1;" x1="231.6792" x2="269.5146" y1="169.9375" y2="169.9375"/><line style="stroke:#E7E7E7;stroke-width:1;" x1="269.5146" x2="269.5146" y1="169.9375" y2="191.9375"/><polygon fill="#E7E7E7" points="265.5146,181.9375,269.5146,191.9375,273.5146,181.9375,269.5146,185.9375" style="stroke:#E7E7E7;stroke-width:1;"/><line style="stroke:#E7E7E7;stroke-width:1;" x1="76.4941" x2="76.4941" y1="225.9063" y2="243.9063"/><line style="stroke:#E7E7E7;stroke-width:1;" x1="76.4941" x2="161.0044" y1="243.9063" y2="243.9063"/><polygon fill="#E7E7E7" points="151.0044,239.9063,161.0044,243.9063,151.0044,247.9063,155.0044,243.9063" style="stroke:#E7E7E7;stroke-width:1;"/><line style="stroke:#E7E7E7;stroke-width:1;" x1="269.5146" x2="269.5146" y1="225.9063" y2="243.9063"/><line style="stroke:#E7E7E7;stroke-width:1;" x1="269.5146" x2="185.0044" y1="243.9063" y2="243.9063"/><polygon fill="#E7E7E7" points="195.0044,239.9063,185.0044,243.9063,195.0044,247.9063,191.0044,243.9063" style="stroke:#E7E7E7;stroke-width:1;"/><line style="stroke:#E7E7E7;stroke-width:1;" x1="173.0044" x2="173.0044" y1="137.9375" y2="157.9375"/><polygon fill="#E7E7E7" points="169.0044,147.9375,173.0044,157.9375,177.0044,147.9375,173.0044,151.9375" style="stroke:#E7E7E7;stroke-width:1;"/><line style="stroke:#E7E7E7;stroke-width:1;" x1="173.0044" x2="173.0044" y1="255.9063" y2="275.9063"/><polygon fill="#E7E7E7" points="169.0044,265.9063,173.0044,275.9063,177.0044,265.9063,173.0044,269.9063" style="stroke:#E7E7E7;stroke-width:1;"/><line style="stroke:#E7E7E7;stroke-width:1;" x1="173.0044" x2="173.0044" y1="407.8438" y2="427.8438"/><polygon fill="#E7E7E7" points="169.0044,417.8438,173.0044,427.8438,177.0044,417.8438,173.0044,421.8438" style="stroke:#E7E7E7;stroke-width:1;"/><line style="stroke:#E7E7E7;stroke-width:1;" x1="173.0044" x2="173.0044" y1="461.8125" y2="481.8125"/><polygon fill="#E7E7E7" points="169.0044,471.8125,173.0044,481.8125,177.0044,471.8125,173.0044,475.8125" style="stroke:#E7E7E7;stroke-width:1;"/><line style="stroke:#E7E7E7;stroke-width:1;" x1="173.0044" x2="173.0044" y1="353.875" y2="373.875"/><polygon fill="#E7E7E7" points="169.0044,363.875,173.0044,373.875,177.0044,363.875,173.0044,367.875" style="stroke:#E7E7E7;stroke-width:1;"/><line style="stroke:#E7E7E7;stroke-width:1;" x1="257.9976" x2="279.1743" y1="547.7813" y2="547.7813"/><polygon fill="#E7E7E7" points="275.1743,454.8281,279.1743,444.8281,283.1743,454.8281,279.1743,450.8281" style="stroke:#E7E7E7;stroke-width:1;"/><line style="stroke:#E7E7E7;stroke-width:1;" x1="279.1743" x2="279.1743" y1="341.875" y2="547.7813"/><line style="stroke:#E7E7E7;stroke-width:1;" x1="279.1743" x2="185.0044" y1="341.875" y2="341.875"/><polygon fill="#E7E7E7" points="195.0044,337.875,185.0044,341.875,195.0044,345.875,191.0044,341.875" style="stroke:#E7E7E7;stroke-width:1;"/><line style="stroke:#E7E7E7;stroke-width:1;" x1="173.0044" x2="173.0044" y1="515.7813" y2="535.7813"/><polygon fill="#E7E7E7" points="169.0044,525.7813,173.0044,535.7813,177.0044,525.7813,173.0044,529.7813" style="stroke:#E7E7E7;stroke-width:1;"/><line style="stroke:#E7E7E7;stroke-width:1;" x1="173.0044" x2="173.0044" y1="309.875" y2="329.875"/><polygon fill="#E7E7E7" points="169.0044,319.875,173.0044,329.875,177.0044,319.875,173.0044,323.875" style="stroke:#E7E7E7;stroke-width:1;"/><line style="stroke:#E7E7E7;stroke-width:1;" x1="173.0044" x2="173.0044" y1="559.7813" y2="579.7813"/><polygon fill="#E7E7E7" points="169.0044,569.7813,173.0044,579.7813,177.0044,569.7813,173.0044,573.7813" style="stroke:#E7E7E7;stroke-width:1;"/><line style="stroke:#E7E7E7;stroke-width:1;" x1="173.0044" x2="173.0044" y1="613.75" y2="633.75"/><polygon fill="#E7E7E7" points="169.0044,623.75,173.0044,633.75,177.0044,623.75,173.0044,627.75" style="stroke:#E7E7E7;stroke-width:1;"/><!--SRC=[HP2nRiCm34HtVGL7-nVi8KCw5XrQj417nZfRGcnAaEGw_VkI2T1C4dJ7nplLngKvDtpOIPpp6YTkCSdeXdF0TAKua-V65wwWEQuWt69jTNGgT2__Ijh5dtfg0KBTDshlY8RNnFxXZxBSCQF3glRkBTqDvm9k8C7nNCBYIQyhT0V4nzdYXNJGnb5eW-oZSmLP9mtnZaNvA1HbIXie5TsO8HMZoLzHsK4TgVm-7tGy5IlnuD0Hh5dtMPLp1NAblLfahMEVSkej0_-0fi2oM385vZy0]--></g></svg>