<svg xmlns="http://www.w3.org/2000/svg" xmlns:xlink="http://www.w3.org/1999/xlink" contentStyleType="text/css" data-diagram-type="SEQUENCE" height="386px" preserveAspectRatio="none" style="width:579px;height:386px;background:#1B1B1B;" version="1.1" viewBox="0 0 579 386" width="579px" zoomAndPan="magnify"><defs/><g><rect fill="#1B1B1B" height="386" style="stroke:none;stroke-width:1;" width="579" x="0" y="0"/><g><title>User</title><rect fill="#000000" fill-opacity="0.00000" height="223.9297" width="8" x="19.9551" y="81.2969"/><line style="stroke:#E7E7E7;stroke-width:0.5;stroke-dasharray:5.0,5.0;" x1="23" x2="23" y1="81.2969" y2="305.2266"/></g><g><title>UI Screen</title><rect fill="#000000" fill-opacity="0.00000" height="223.9297" width="8" x="164.6685" y="81.2969"/><line style="stroke:#E7E7E7;stroke-width:0.5;stroke-dasharray:5.0,5.0;" x1="168.0356" x2="168.0356" y1="81.2969" y2="305.2266"/></g><g><title>Controller</title><rect fill="#000000" fill-opacity="0.00000" height="223.9297" width="8" x="302.0757" y="81.2969"/><line style="stroke:#E7E7E7;stroke-width:0.5;stroke-dasharray:5.0,5.0;" x1="305.4893" x2="305.4893" y1="81.2969" y2="305.2266"/></g><g><title>Service</title><rect fill="#000000" fill-opacity="0.00000" height="223.9297" width="8" x="414.4858" y="81.2969"/><line style="stroke:#E7E7E7;stroke-width:0.5;stroke-dasharray:5.0,5.0;" x1="417.6152" x2="417.6152" y1="81.2969" y2="305.2266"/></g><g><title>DataBase</title><rect fill="#000000" fill-opacity="0.00000" height="223.9297" width="8" x="528.9146" y="81.2969"/><line style="stroke:#E7E7E7;stroke-width:0.5;stroke-dasharray:5.0,5.0;" x1="532.1553" x2="532.1553" y1="81.2969" y2="305.2266"/></g><g class="participant participant-head" data-participant="User"><text fill="#FFFFFF" font-family="sans-serif" font-size="14" lengthAdjust="spacing" textLength="31.9102" x="5" y="77.9951">User</text><ellipse cx="23.9551" cy="13.5" fill="#222222" rx="8" ry="8" style="stroke:#E7E7E7;stroke-width:0.5;"/><path d="M23.9551,21.5 L23.9551,48.5 M10.9551,29.5 L36.9551,29.5 M23.9551,48.5 L10.9551,63.5 M23.9551,48.5 L36.9551,63.5" fill="none" style="stroke:#E7E7E7;stroke-width:0.5;"/></g><g class="participant participant-tail" data-participant="User"><text fill="#FFFFFF" font-family="sans-serif" font-size="14" lengthAdjust="spacing" textLength="31.9102" x="5" y="317.2217">User</text><ellipse cx="23.9551" cy="329.0234" fill="#222222" rx="8" ry="8" style="stroke:#E7E7E7;stroke-width:0.5;"/><path d="M23.9551,337.0234 L23.9551,364.0234 M10.9551,345.0234 L36.9551,345.0234 M23.9551,364.0234 L10.9551,379.0234 M23.9551,364.0234 L36.9551,379.0234" fill="none" style="stroke:#E7E7E7;stroke-width:0.5;"/></g><g class="participant participant-head" data-participant="UI"><rect fill="#222222" height="30.2969" rx="2.5" ry="2.5" style="stroke:#E7E7E7;stroke-width:0.5;" width="81.2656" x="128.0356" y="50"/><text fill="#FFFFFF" font-family="sans-serif" font-size="14" lengthAdjust="spacing" textLength="67.2656" x="135.0356" y="69.9951">UI Screen</text></g><g class="participant participant-tail" data-participant="UI"><rect fill="#222222" height="30.2969" rx="2.5" ry="2.5" style="stroke:#E7E7E7;stroke-width:0.5;" width="81.2656" x="128.0356" y="304.2266"/><text fill="#FFFFFF" font-family="sans-serif" font-size="14" lengthAdjust="spacing" textLength="67.2656" x="135.0356" y="324.2217">UI Screen</text></g><g class="participant participant-head" data-participant="Controller"><rect fill="#222222" height="30.2969" rx="2.5" ry="2.5" style="stroke:#E7E7E7;stroke-width:0.5;" width="83.1729" x="264.4893" y="50"/><text fill="#FFFFFF" font-family="sans-serif" font-size="14" lengthAdjust="spacing" textLength="69.1729" x="271.4893" y="69.9951">Controller</text></g><g class="participant participant-tail" data-participant="Controller"><rect fill="#222222" height="30.2969" rx="2.5" ry="2.5" style="stroke:#E7E7E7;stroke-width:0.5;" width="83.1729" x="264.4893" y="304.2266"/><text fill="#FFFFFF" font-family="sans-serif" font-size="14" lengthAdjust="spacing" textLength="69.1729" x="271.4893" y="324.2217">Controller</text></g><g class="participant participant-head" data-participant="Service"><rect fill="#222222" height="30.2969" rx="2.5" ry="2.5" style="stroke:#E7E7E7;stroke-width:0.5;" width="65.7412" x="385.6152" y="50"/><text fill="#FFFFFF" font-family="sans-serif" font-size="14" lengthAdjust="spacing" textLength="51.7412" x="392.6152" y="69.9951">Service</text></g><g class="participant participant-tail" data-participant="Service"><rect fill="#222222" height="30.2969" rx="2.5" ry="2.5" style="stroke:#E7E7E7;stroke-width:0.5;" width="65.7412" x="385.6152" y="304.2266"/><text fill="#FFFFFF" font-family="sans-serif" font-size="14" lengthAdjust="spacing" textLength="51.7412" x="392.6152" y="324.2217">Service</text></g><g class="participant participant-head" data-participant="DataBase"><rect fill="#222222" height="30.2969" rx="2.5" ry="2.5" style="stroke:#E7E7E7;stroke-width:0.5;" width="81.5186" x="492.1553" y="50"/><text fill="#FFFFFF" font-family="sans-serif" font-size="14" lengthAdjust="spacing" textLength="67.5186" x="499.1553" y="69.9951">DataBase</text></g><g class="participant participant-tail" data-participant="DataBase"><rect fill="#222222" height="30.2969" rx="2.5" ry="2.5" style="stroke:#E7E7E7;stroke-width:0.5;" width="81.5186" x="492.1553" y="304.2266"/><text fill="#FFFFFF" font-family="sans-serif" font-size="14" lengthAdjust="spacing" textLength="67.5186" x="499.1553" y="324.2217">DataBase</text></g><g class="message" data-participant-1="User" data-participant-2="UI"><polygon fill="#E7E7E7" points="156.6685,108.4297,166.6685,112.4297,156.6685,116.4297,160.6685,112.4297" style="stroke:#E7E7E7;stroke-width:1;"/><line style="stroke:#E7E7E7;stroke-width:1;" x1="23.9551" x2="162.6685" y1="112.4297" y2="112.4297"/><text fill="#FFFFFF" font-family="sans-serif" font-size="13" lengthAdjust="spacing" textLength="120.7134" x="30.9551" y="107.3638">Fill in income form</text></g><g class="message" data-participant-1="UI" data-participant-2="Controller"><polygon fill="#E7E7E7" points="294.0757,137.5625,304.0757,141.5625,294.0757,145.5625,298.0757,141.5625" style="stroke:#E7E7E7;stroke-width:1;"/><line style="stroke:#E7E7E7;stroke-width:1;" x1="168.6685" x2="300.0757" y1="141.5625" y2="141.5625"/><text fill="#FFFFFF" font-family="sans-serif" font-size="13" lengthAdjust="spacing" textLength="89.2417" x="175.6685" y="136.4966">sendIncome()</text></g><g class="message" data-participant-1="Controller" data-participant-2="Service"><polygon fill="#E7E7E7" points="406.4858,166.6953,416.4858,170.6953,406.4858,174.6953,410.4858,170.6953" style="stroke:#E7E7E7;stroke-width:1;"/><line style="stroke:#E7E7E7;stroke-width:1;" x1="306.0757" x2="412.4858" y1="170.6953" y2="170.6953"/><text fill="#FFFFFF" font-family="sans-serif" font-size="13" lengthAdjust="spacing" textLength="88.4102" x="313.0757" y="165.6294">saveIncome()</text></g><g class="message" data-participant-1="Service" data-participant-2="DataBase"><polygon fill="#E7E7E7" points="520.9146,195.8281,530.9146,199.8281,520.9146,203.8281,524.9146,199.8281" style="stroke:#E7E7E7;stroke-width:1;"/><line style="stroke:#E7E7E7;stroke-width:1;" x1="418.4858" x2="526.9146" y1="199.8281" y2="199.8281"/><text fill="#FFFFFF" font-family="sans-serif" font-size="13" lengthAdjust="spacing" textLength="88.188" x="425.4858" y="194.7622">save(income)</text></g><g class="message" data-participant-1="DataBase" data-participant-2="Service"><polygon fill="#E7E7E7" points="429.4858,224.9609,419.4858,228.9609,429.4858,232.9609,425.4858,228.9609" style="stroke:#E7E7E7;stroke-width:1;"/><line style="stroke:#E7E7E7;stroke-width:1;stroke-dasharray:2.0,2.0;" x1="423.4858" x2="531.9146" y1="228.9609" y2="228.9609"/><text fill="#FFFFFF" font-family="sans-serif" font-size="13" lengthAdjust="spacing" textLength="90.4287" x="435.4858" y="223.895">income saved</text></g><g class="message" data-participant-1="Service" data-participant-2="Controller"><polygon fill="#E7E7E7" points="317.0757,254.0938,307.0757,258.0938,317.0757,262.0938,313.0757,258.0938" style="stroke:#E7E7E7;stroke-width:1;"/><line style="stroke:#E7E7E7;stroke-width:1;stroke-dasharray:2.0,2.0;" x1="311.0757" x2="417.4858" y1="258.0938" y2="258.0938"/><text fill="#FFFFFF" font-family="sans-serif" font-size="13" lengthAdjust="spacing" textLength="37.064" x="323.0757" y="253.0278">result</text></g><g class="message" data-participant-1="Controller" data-participant-2="UI"><polygon fill="#E7E7E7" points="179.6685,283.2266,169.6685,287.2266,179.6685,291.2266,175.6685,287.2266" style="stroke:#E7E7E7;stroke-width:1;"/><line style="stroke:#E7E7E7;stroke-width:1;stroke-dasharray:2.0,2.0;" x1="173.6685" x2="305.0757" y1="287.2266" y2="287.2266"/><text fill="#FFFFFF" font-family="sans-serif" font-size="13" lengthAdjust="spacing" textLength="113.4072" x="185.6685" y="282.1606">success message</text></g><!--SRC=[NO_12eCm38RlVOhWIG- -m0uxR6FWMNo0KBDHgAqarUTVgtMTWr2I_1_v_w8Edc4GOZKZ1wFDZ2v0DNJGQoPo5Q30q9tLktU1lRN4crp6CzOJhqRJnkJ-33mmu0rb9uv1gHG7sckqlS3JM0l6nT9-8dXvdbGC5zNYUW4XDtORKJUg20dBnf71bRvCtYRWyDs9UZTgrB66zlT8Zf78iHpvIyCaYmsd7FaticXD8Z351z_q0G00]--></g></svg>